<mxfile host="app.diagrams.net" agent="Mozilla/5.0 (Windows NT 10.0; Win64; x64) AppleWebKit/537.36 (KHTML, like Gecko) Chrome/139.0.0.0 Safari/537.36" version="28.0.9">
  <diagram name="Halaman-1" id="potUNZumnhnGZ5zW1RVp">
    <mxGraphModel dx="1572" dy="994" grid="0" gridSize="10" guides="1" tooltips="1" connect="1" arrows="1" fold="1" page="0" pageScale="1" pageWidth="827" pageHeight="1169" background="#ffffff" math="0" shadow="0">
      <root>
        <mxCell id="0" />
        <mxCell id="1" parent="0" />
        <mxCell id="iOWa4eBW7pKkqYx2O3hd-1" style="edgeStyle=orthogonalEdgeStyle;rounded=0;orthogonalLoop=1;jettySize=auto;html=1;entryX=0;entryY=0.5;entryDx=0;entryDy=0;" edge="1" parent="1" source="TfFSCGZfl2gMnk0QdIq5-11" target="TfFSCGZfl2gMnk0QdIq5-21">
          <mxGeometry relative="1" as="geometry" />
        </mxCell>
        <mxCell id="iOWa4eBW7pKkqYx2O3hd-6" style="edgeStyle=orthogonalEdgeStyle;rounded=0;orthogonalLoop=1;jettySize=auto;html=1;entryX=0;entryY=0.5;entryDx=0;entryDy=0;" edge="1" parent="1" source="TfFSCGZfl2gMnk0QdIq5-11" target="TfFSCGZfl2gMnk0QdIq5-22">
          <mxGeometry relative="1" as="geometry" />
        </mxCell>
        <mxCell id="iOWa4eBW7pKkqYx2O3hd-7" style="edgeStyle=orthogonalEdgeStyle;rounded=0;orthogonalLoop=1;jettySize=auto;html=1;" edge="1" parent="1" source="TfFSCGZfl2gMnk0QdIq5-11" target="TfFSCGZfl2gMnk0QdIq5-14">
          <mxGeometry relative="1" as="geometry" />
        </mxCell>
        <mxCell id="iOWa4eBW7pKkqYx2O3hd-8" style="edgeStyle=orthogonalEdgeStyle;rounded=0;orthogonalLoop=1;jettySize=auto;html=1;" edge="1" parent="1" source="TfFSCGZfl2gMnk0QdIq5-11" target="TfFSCGZfl2gMnk0QdIq5-15">
          <mxGeometry relative="1" as="geometry" />
        </mxCell>
        <mxCell id="iOWa4eBW7pKkqYx2O3hd-10" style="edgeStyle=orthogonalEdgeStyle;rounded=0;orthogonalLoop=1;jettySize=auto;html=1;entryX=0;entryY=0.5;entryDx=0;entryDy=0;" edge="1" parent="1" source="TfFSCGZfl2gMnk0QdIq5-11" target="TfFSCGZfl2gMnk0QdIq5-17">
          <mxGeometry relative="1" as="geometry" />
        </mxCell>
        <mxCell id="TfFSCGZfl2gMnk0QdIq5-11" value="Masyarakat" style="shape=umlActor;verticalLabelPosition=bottom;verticalAlign=top;html=1;outlineConnect=0;" parent="1" vertex="1">
          <mxGeometry x="93" y="452" width="69" height="138" as="geometry" />
        </mxCell>
        <mxCell id="TfFSCGZfl2gMnk0QdIq5-14" value="Megirim Laporan" style="ellipse;whiteSpace=wrap;html=1;" parent="1" vertex="1">
          <mxGeometry x="338" y="459" width="120" height="80" as="geometry" />
        </mxCell>
        <mxCell id="TfFSCGZfl2gMnk0QdIq5-15" value="Melihat Status" style="ellipse;whiteSpace=wrap;html=1;" parent="1" vertex="1">
          <mxGeometry x="338" y="548" width="120" height="80" as="geometry" />
        </mxCell>
        <mxCell id="TfFSCGZfl2gMnk0QdIq5-17" value="Memberikan Tanggapan" style="ellipse;whiteSpace=wrap;html=1;" parent="1" vertex="1">
          <mxGeometry x="336" y="637" width="120" height="80" as="geometry" />
        </mxCell>
        <mxCell id="iOWa4eBW7pKkqYx2O3hd-3" style="edgeStyle=orthogonalEdgeStyle;rounded=0;orthogonalLoop=1;jettySize=auto;html=1;entryX=0;entryY=0.5;entryDx=0;entryDy=0;" edge="1" parent="1" source="TfFSCGZfl2gMnk0QdIq5-19" target="TfFSCGZfl2gMnk0QdIq5-21">
          <mxGeometry relative="1" as="geometry" />
        </mxCell>
        <mxCell id="iOWa4eBW7pKkqYx2O3hd-11" style="edgeStyle=orthogonalEdgeStyle;rounded=0;orthogonalLoop=1;jettySize=auto;html=1;exitX=0.5;exitY=0.5;exitDx=0;exitDy=0;exitPerimeter=0;entryX=0;entryY=0.5;entryDx=0;entryDy=0;" edge="1" parent="1" source="TfFSCGZfl2gMnk0QdIq5-19" target="TfFSCGZfl2gMnk0QdIq5-25">
          <mxGeometry relative="1" as="geometry" />
        </mxCell>
        <mxCell id="iOWa4eBW7pKkqYx2O3hd-12" style="edgeStyle=orthogonalEdgeStyle;rounded=0;orthogonalLoop=1;jettySize=auto;html=1;entryX=0;entryY=0.5;entryDx=0;entryDy=0;" edge="1" parent="1" source="TfFSCGZfl2gMnk0QdIq5-19" target="TfFSCGZfl2gMnk0QdIq5-15">
          <mxGeometry relative="1" as="geometry" />
        </mxCell>
        <mxCell id="iOWa4eBW7pKkqYx2O3hd-13" style="edgeStyle=orthogonalEdgeStyle;rounded=0;orthogonalLoop=1;jettySize=auto;html=1;exitX=0.5;exitY=0.5;exitDx=0;exitDy=0;exitPerimeter=0;entryX=0;entryY=0.5;entryDx=0;entryDy=0;" edge="1" parent="1" source="TfFSCGZfl2gMnk0QdIq5-19" target="TfFSCGZfl2gMnk0QdIq5-17">
          <mxGeometry relative="1" as="geometry" />
        </mxCell>
        <mxCell id="iOWa4eBW7pKkqYx2O3hd-14" style="edgeStyle=orthogonalEdgeStyle;rounded=0;orthogonalLoop=1;jettySize=auto;html=1;" edge="1" parent="1" source="TfFSCGZfl2gMnk0QdIq5-19" target="TfFSCGZfl2gMnk0QdIq5-24">
          <mxGeometry relative="1" as="geometry" />
        </mxCell>
        <mxCell id="iOWa4eBW7pKkqYx2O3hd-15" style="edgeStyle=orthogonalEdgeStyle;rounded=0;orthogonalLoop=1;jettySize=auto;html=1;entryX=0;entryY=0.5;entryDx=0;entryDy=0;" edge="1" parent="1" source="TfFSCGZfl2gMnk0QdIq5-19" target="TfFSCGZfl2gMnk0QdIq5-23">
          <mxGeometry relative="1" as="geometry" />
        </mxCell>
        <mxCell id="TfFSCGZfl2gMnk0QdIq5-19" value="Petugas" style="shape=umlActor;verticalLabelPosition=bottom;verticalAlign=top;html=1;outlineConnect=0;" parent="1" vertex="1">
          <mxGeometry x="30" y="696" width="69" height="138" as="geometry" />
        </mxCell>
        <mxCell id="iOWa4eBW7pKkqYx2O3hd-2" style="edgeStyle=orthogonalEdgeStyle;rounded=0;orthogonalLoop=1;jettySize=auto;html=1;entryX=1;entryY=0.5;entryDx=0;entryDy=0;" edge="1" parent="1" source="TfFSCGZfl2gMnk0QdIq5-20" target="TfFSCGZfl2gMnk0QdIq5-21">
          <mxGeometry relative="1" as="geometry" />
        </mxCell>
        <mxCell id="iOWa4eBW7pKkqYx2O3hd-16" style="edgeStyle=orthogonalEdgeStyle;rounded=0;orthogonalLoop=1;jettySize=auto;html=1;entryX=1;entryY=0.5;entryDx=0;entryDy=0;" edge="1" parent="1" source="TfFSCGZfl2gMnk0QdIq5-20" target="TfFSCGZfl2gMnk0QdIq5-26">
          <mxGeometry relative="1" as="geometry" />
        </mxCell>
        <mxCell id="iOWa4eBW7pKkqYx2O3hd-17" style="edgeStyle=orthogonalEdgeStyle;rounded=0;orthogonalLoop=1;jettySize=auto;html=1;entryX=1;entryY=0.5;entryDx=0;entryDy=0;" edge="1" parent="1" source="TfFSCGZfl2gMnk0QdIq5-20" target="TfFSCGZfl2gMnk0QdIq5-27">
          <mxGeometry relative="1" as="geometry" />
        </mxCell>
        <mxCell id="iOWa4eBW7pKkqYx2O3hd-18" style="edgeStyle=orthogonalEdgeStyle;rounded=0;orthogonalLoop=1;jettySize=auto;html=1;entryX=1;entryY=0.5;entryDx=0;entryDy=0;" edge="1" parent="1" source="TfFSCGZfl2gMnk0QdIq5-20" target="TfFSCGZfl2gMnk0QdIq5-28">
          <mxGeometry relative="1" as="geometry" />
        </mxCell>
        <mxCell id="iOWa4eBW7pKkqYx2O3hd-19" style="edgeStyle=orthogonalEdgeStyle;rounded=0;orthogonalLoop=1;jettySize=auto;html=1;entryX=1;entryY=0.5;entryDx=0;entryDy=0;" edge="1" parent="1" source="TfFSCGZfl2gMnk0QdIq5-20" target="TfFSCGZfl2gMnk0QdIq5-29">
          <mxGeometry relative="1" as="geometry" />
        </mxCell>
        <mxCell id="TfFSCGZfl2gMnk0QdIq5-20" value="Admin" style="shape=umlActor;verticalLabelPosition=bottom;verticalAlign=top;html=1;outlineConnect=0;" parent="1" vertex="1">
          <mxGeometry x="551" y="468" width="69" height="138" as="geometry" />
        </mxCell>
        <mxCell id="TfFSCGZfl2gMnk0QdIq5-21" value="Login" style="ellipse;whiteSpace=wrap;html=1;" parent="1" vertex="1">
          <mxGeometry x="338" y="268" width="120" height="80" as="geometry" />
        </mxCell>
        <mxCell id="TfFSCGZfl2gMnk0QdIq5-22" value="Registrasi" style="ellipse;whiteSpace=wrap;html=1;" parent="1" vertex="1">
          <mxGeometry x="338" y="362" width="120" height="80" as="geometry" />
        </mxCell>
        <mxCell id="TfFSCGZfl2gMnk0QdIq5-23" value="Menanggapi Laporan" style="ellipse;whiteSpace=wrap;html=1;" parent="1" vertex="1">
          <mxGeometry x="336" y="834" width="120" height="80" as="geometry" />
        </mxCell>
        <mxCell id="TfFSCGZfl2gMnk0QdIq5-24" value="Melihat Daftar" style="ellipse;whiteSpace=wrap;html=1;" parent="1" vertex="1">
          <mxGeometry x="336" y="734" width="120" height="80" as="geometry" />
        </mxCell>
        <mxCell id="TfFSCGZfl2gMnk0QdIq5-25" value="Ubah Status Laporan" style="ellipse;whiteSpace=wrap;html=1;" parent="1" vertex="1">
          <mxGeometry x="338" y="924" width="120" height="80" as="geometry" />
        </mxCell>
        <mxCell id="TfFSCGZfl2gMnk0QdIq5-26" value="Kelola User" style="ellipse;whiteSpace=wrap;html=1;" parent="1" vertex="1">
          <mxGeometry x="338" y="1014" width="120" height="80" as="geometry" />
        </mxCell>
        <mxCell id="TfFSCGZfl2gMnk0QdIq5-27" value="Kelola Kategori" style="ellipse;whiteSpace=wrap;html=1;" parent="1" vertex="1">
          <mxGeometry x="338" y="1104" width="120" height="80" as="geometry" />
        </mxCell>
        <mxCell id="TfFSCGZfl2gMnk0QdIq5-28" value="Monitoring Laporan" style="ellipse;whiteSpace=wrap;html=1;" parent="1" vertex="1">
          <mxGeometry x="338" y="1188" width="120" height="80" as="geometry" />
        </mxCell>
        <mxCell id="TfFSCGZfl2gMnk0QdIq5-29" value="Lihat Statistik" style="ellipse;whiteSpace=wrap;html=1;" parent="1" vertex="1">
          <mxGeometry x="338" y="1277" width="120" height="80" as="geometry" />
        </mxCell>
      </root>
    </mxGraphModel>
  </diagram>
</mxfile>
